<?xml version="1.0" standalone="no"?>
<!DOCTYPE svg PUBLIC "-//W3C//DTD SVG 20010904//EN"
 "http://www.w3.org/TR/2001/REC-SVG-20010904/DTD/svg10.dtd">
<svg version="1.0" xmlns="http://www.w3.org/2000/svg"
 width="268.000000pt" height="93.000000pt" viewBox="0 0 268.000000 93.000000"
 preserveAspectRatio="xMidYMid meet">
<metadata>
Created by potrace 1.16, written by Peter Selinger 2001-2019
</metadata>
<g transform="translate(0.000000,93.000000) scale(0.100000,-0.100000)"
fill="#000000" stroke="none">
<path d="M2132 892 c-13 -9 -120 -210 -197 -372 -88 -182 -87 -182 -127 -195
-21 -7 -38 -11 -38 -9 0 3 -11 -3 -25 -12 -14 -9 -25 -23 -25 -31 0 -19 -60
-73 -81 -73 -43 0 -31 29 26 66 24 15 47 34 49 41 10 25 -47 2 -83 -33 -19
-19 -37 -34 -40 -34 -4 0 -12 14 -19 32 -10 27 -9 34 3 41 8 4 20 18 26 30 10
19 8 18 -18 -5 -35 -33 -53 -36 -53 -8 0 21 56 54 72 44 5 -3 8 0 8 6 0 33
-69 10 -91 -31 -13 -26 -1 -66 22 -72 31 -8 22 -35 -21 -63 -22 -15 -40 -31
-40 -35 0 -14 12 -10 55 16 46 29 55 30 55 10 0 -26 46 -29 76 -6 16 13 35 19
46 15 10 -3 18 -2 16 3 -5 19 45 82 73 92 37 13 38 2 3 -73 -28 -61 -26 -80 4
-53 10 10 24 17 30 17 6 0 18 10 26 21 13 19 68 59 81 59 3 0 5 -11 5 -24 0
-22 4 -24 44 -23 36 2 45 6 54 27 5 14 17 43 26 65 9 22 10 31 3 20 -6 -11
-32 -40 -57 -65 l-45 -45 -3 33 c-2 18 2 40 9 48 9 11 8 14 -4 14 -8 0 -21 -7
-28 -16 -19 -23 -86 -64 -104 -64 -24 0 26 91 69 123 19 15 45 42 57 59 20 30
18 29 -22 -9 -25 -24 -48 -43 -51 -43 -11 0 18 66 129 288 59 116 110 212 115
212 4 0 8 -8 9 -17 0 -15 2 -15 8 2 13 31 0 44 -27 27z"/>
<path d="M2543 868 c-80 -84 -194 -288 -249 -445 -21 -60 -34 -83 -46 -83 -22
0 -34 -20 -18 -30 13 -8 -12 -38 -60 -73 -25 -17 -25 -17 7 -2 17 8 35 19 38
25 12 20 32 10 28 -13 -5 -27 18 -50 43 -45 26 5 29 28 5 28 -44 0 -15 95 49
164 23 25 49 56 57 68 8 13 -11 -4 -42 -37 -62 -66 -63 -63 -17 55 69 177 210
400 253 400 14 0 11 -33 -7 -75 -8 -20 -13 -39 -11 -41 8 -8 46 106 41 121
-10 24 -38 17 -71 -17z"/>
<path d="M1578 753 c-20 -5 -55 -57 -101 -153 -33 -69 -45 -99 -98 -250 -22
-61 -62 -110 -108 -134 -54 -28 -55 -16 -6 55 40 59 43 69 15 62 -11 -3 -27
-20 -36 -39 -22 -47 -114 -127 -114 -100 0 7 61 120 72 134 6 7 9 15 6 17 -9
9 -33 -5 -43 -24 -6 -10 -20 -38 -33 -62 -30 -57 -79 -94 -98 -74 -12 11 -8
22 21 65 40 60 43 73 14 68 -14 -2 -25 -15 -34 -40 -15 -45 -36 -67 -89 -92
-29 -14 -36 -20 -24 -23 10 -3 28 3 40 11 29 21 35 20 41 -5 5 -18 11 -20 34
-14 15 3 35 12 43 20 9 7 28 11 48 8 23 -4 39 0 53 13 19 17 21 18 30 1 6 -9
15 -17 21 -17 15 0 88 49 105 70 9 10 12 11 13 3 0 -30 28 -11 33 23 3 20 18
51 32 70 16 21 20 32 10 28 -8 -3 -15 -4 -15 -1 0 2 18 53 40 112 60 162 144
307 128 220 -3 -14 -2 -25 3 -25 8 0 25 69 18 74 -2 1 -11 1 -21 -1z"/>
<path d="M1029 686 c-74 -68 -95 -113 -109 -222 -17 -129 -15 -126 -66 -177
-52 -53 -133 -111 -143 -102 -3 4 6 29 21 56 17 32 22 51 15 56 -6 3 -16 -2
-21 -12 -15 -26 -89 -105 -98 -105 -19 0 -5 27 34 68 35 35 40 44 28 52 -11 7
-18 5 -25 -7 -5 -9 -25 -32 -43 -51 -38 -40 -40 -75 -5 -80 14 -2 27 5 39 22
19 31 34 33 34 7 0 -11 4 -23 10 -26 12 -7 49 11 73 36 23 24 113 28 104 5 -3
-8 -11 -32 -16 -54 -6 -22 -23 -57 -37 -78 -16 -23 -19 -33 -9 -24 29 24 64
86 77 136 9 34 20 49 38 57 22 9 23 11 6 15 -16 3 -18 10 -11 55 4 29 9 88 11
132 4 56 12 95 29 130 27 57 35 67 88 113 76 65 76 36 0 -106 -32 -59 -68
-122 -80 -141 -13 -19 -23 -39 -23 -45 0 -6 8 1 17 14 16 22 34 55 131 230 16
30 33 65 37 78 5 19 3 22 -22 22 -20 0 -44 -15 -84 -54z"/>
<path d="M538 677 c-62 -27 -198 -214 -198 -273 0 -35 21 -84 42 -95 14 -7 17
-16 12 -32 -6 -21 -5 -21 8 -3 12 15 18 17 36 7 11 -6 30 -11 41 -11 27 0 45
-34 31 -59 -5 -11 -28 -35 -51 -55 -23 -19 -48 -45 -56 -57 -15 -20 -15 -21 8
-8 44 23 115 85 112 96 -2 6 1 14 6 18 30 18 -6 75 -47 75 -12 0 -31 9 -42 20
-12 12 -25 18 -30 15 -14 -8 -50 45 -50 74 1 62 40 131 126 219 74 75 80 54
22 -88 -17 -41 -37 -93 -45 -115 -8 -22 -19 -46 -25 -53 -6 -7 -8 -15 -5 -18
10 -10 68 115 125 269 27 75 23 92 -20 74z"/>
</g>
</svg>
